<svg width="44" height="44" viewBox="0 0 44 44" fill="none" xmlns="http://www.w3.org/2000/svg">
<rect x="0.5" y="0.5" width="43" height="43" rx="21.5" fill="#F6F7FA"/>
<rect x="0.5" y="0.5" width="43" height="43" rx="21.5" stroke="#FDFDFD"/>
<path d="M30.3337 30.9583H16.167C14.442 30.9583 13.042 29.5583 13.042 27.8333V13.6666C13.042 13.325 13.3253 13.0416 13.667 13.0416C14.0087 13.0416 14.292 13.325 14.292 13.6666V27.8333C14.292 28.8666 15.1337 29.7083 16.167 29.7083H30.3337C30.6753 29.7083 30.9587 29.9916 30.9587 30.3333C30.9587 30.675 30.6753 30.9583 30.3337 30.9583Z" fill="#FF4D4D"/>
<path opacity="0.4" d="M16.1668 26.7917C16.0252 26.7917 15.8752 26.7417 15.7585 26.6417C15.5002 26.4167 15.4668 26.025 15.6918 25.7584L19.5168 21.2917C19.9335 20.8083 20.5335 20.5167 21.1668 20.4917C21.8002 20.475 22.4252 20.7083 22.8752 21.1583L23.6668 21.95C23.8752 22.1583 24.1418 22.2583 24.4418 22.2583C24.7335 22.25 25.0002 22.1167 25.1918 21.8917L29.0168 17.425C29.2418 17.1667 29.6335 17.1333 29.9002 17.3583C30.1585 17.5833 30.1918 17.975 29.9668 18.2417L26.1418 22.7084C25.7252 23.1917 25.1252 23.4833 24.4918 23.5083C23.8502 23.525 23.2335 23.2917 22.7835 22.8417L22.0002 22.05C21.7918 21.8417 21.5168 21.7334 21.2252 21.7417C20.9335 21.75 20.6668 21.8834 20.4752 22.1084L16.6502 26.575C16.5168 26.7167 16.3418 26.7917 16.1668 26.7917Z" fill="#FF4D4D"/>
</svg>
