<svg width="44" height="44" viewBox="0 0 44 44" fill="none" xmlns="http://www.w3.org/2000/svg">
<rect x="0.5" y="0.5" width="43" height="43" rx="21.5" fill="#FDFDFD"/>
<rect x="0.5" y="0.5" width="43" height="43" rx="21.5" stroke="#F2F5F9"/>
<path d="M22.0013 30.0413C21.743 30.0413 21.493 30.008 21.2846 29.933C18.1013 28.8413 13.043 24.9663 13.043 19.2413C13.043 16.3247 15.4013 13.958 18.3013 13.958C19.7096 13.958 21.0263 14.508 22.0013 15.4913C22.9763 14.508 24.293 13.958 25.7013 13.958C28.6013 13.958 30.9596 16.333 30.9596 19.2413C30.9596 24.9747 25.9013 28.8413 22.718 29.933C22.5096 30.008 22.2596 30.0413 22.0013 30.0413ZM18.3013 15.208C16.093 15.208 14.293 17.0163 14.293 19.2413C14.293 24.933 19.768 28.0997 21.693 28.758C21.843 28.808 22.168 28.808 22.318 28.758C24.2346 28.0997 29.718 24.9413 29.718 19.2413C29.718 17.0163 27.918 15.208 25.7096 15.208C24.443 15.208 23.268 15.7997 22.5096 16.8247C22.2763 17.1413 21.743 17.1413 21.5096 16.8247C20.7346 15.7913 19.568 15.208 18.3013 15.208Z" fill="#263141"/>
</svg>
