<svg width="20" height="20" viewBox="0 0 20 20" fill="none" xmlns="http://www.w3.org/2000/svg">
<path d="M9.99935 18.0416C9.74102 18.0416 9.49102 18.0083 9.28268 17.9333C6.09935 16.8416 1.04102 12.9666 1.04102 7.24158C1.04102 4.32492 3.39935 1.95825 6.29935 1.95825C7.70768 1.95825 9.02435 2.50825 9.99935 3.49159C10.9743 2.50825 12.291 1.95825 13.6993 1.95825C16.5993 1.95825 18.9577 4.33325 18.9577 7.24158C18.9577 12.9749 13.8993 16.8416 10.716 17.9333C10.5077 18.0083 10.2577 18.0416 9.99935 18.0416ZM6.29935 3.20825C4.09102 3.20825 2.29102 5.01658 2.29102 7.24158C2.29102 12.9333 7.76602 16.0999 9.69102 16.7583C9.84102 16.8083 10.166 16.8083 10.316 16.7583C12.2327 16.0999 17.716 12.9416 17.716 7.24158C17.716 5.01658 15.916 3.20825 13.7077 3.20825C12.441 3.20825 11.266 3.79992 10.5077 4.82492C10.2743 5.14159 9.74102 5.14159 9.50768 4.82492C8.73268 3.79159 7.56602 3.20825 6.29935 3.20825Z" fill="#263141"/>
</svg>
