<svg width="184" height="61" viewBox="0 0 184 61" fill="none" xmlns="http://www.w3.org/2000/svg">
<rect x="0.850586" width="182.488" height="61" rx="10" fill="#0F1113"/>
<path d="M38.623 30.9593C38.6394 29.6864 38.9775 28.4384 39.6059 27.3313C40.2342 26.2243 41.1324 25.2941 42.2168 24.6274C41.5279 23.6435 40.6191 22.8339 39.5625 22.2627C38.5059 21.6915 37.3308 21.3745 36.1303 21.3369C33.5694 21.0682 31.0868 22.8693 29.7818 22.8693C28.4516 22.8693 26.4424 21.3636 24.2789 21.4082C22.8794 21.4534 21.5156 21.8603 20.3201 22.5894C19.1247 23.3184 18.1385 24.3447 17.4577 25.5682C14.5083 30.6745 16.7083 38.1791 19.5335 42.3067C20.947 44.3278 22.599 46.5855 24.7606 46.5055C26.8759 46.4177 27.6659 45.1566 30.2192 45.1566C32.7488 45.1566 33.49 46.5055 35.6955 46.4546C37.9653 46.4177 39.3954 44.4244 40.7593 42.3841C41.7749 40.944 42.5564 39.3523 43.0749 37.668C41.7562 37.1103 40.6309 36.1767 39.8392 34.9837C39.0475 33.7907 38.6246 32.3911 38.623 30.9593Z" fill="white"/>
<path d="M34.4573 18.6221C35.6949 17.1365 36.3046 15.2269 36.157 13.299C34.2662 13.4975 32.5197 14.4012 31.2654 15.8299C30.6522 16.5278 30.1825 17.3398 29.8832 18.2193C29.5839 19.0989 29.4609 20.0288 29.5213 20.956C30.467 20.9657 31.4026 20.7607 32.2576 20.3565C33.1126 19.9522 33.8647 19.3592 34.4573 18.6221Z" fill="white"/>
<path d="M65.3614 41.388H58.143L56.4095 46.5066H53.3521L60.1892 27.5691H63.3658L70.203 46.5066H67.0934L65.3614 41.388ZM58.8906 39.026H64.6124L61.7917 30.7189H61.7128L58.8906 39.026Z" fill="white"/>
<path d="M84.9691 39.6035C84.9691 43.894 82.6727 46.6506 79.2072 46.6506C78.3293 46.6966 77.4562 46.4943 76.688 46.0671C75.9197 45.6399 75.2872 45.005 74.863 44.235H74.7974V51.0737H71.9634V32.6993H74.7066V34.9957H74.7588C75.2025 34.2294 75.8456 33.5978 76.6197 33.168C77.3939 32.7382 78.2701 32.5263 79.1551 32.5548C82.6592 32.5548 84.9691 35.3248 84.9691 39.6035ZM82.0561 39.6035C82.0561 36.8082 80.6115 34.9704 78.4074 34.9704C76.2421 34.9704 74.7856 36.8469 74.7856 39.6035C74.7856 42.3854 76.2421 44.2485 78.4074 44.2485C80.6115 44.2485 82.0561 42.4241 82.0561 39.6035Z" fill="white"/>
<path d="M100.165 39.6035C100.165 43.894 97.869 46.6506 94.4035 46.6506C93.5256 46.6966 92.6525 46.4943 91.8842 46.0671C91.116 45.6399 90.4835 45.005 90.0593 44.235H89.9937V51.0737H87.1597V32.6993H89.9029V34.9957H89.955C90.3987 34.2294 91.0418 33.5978 91.816 33.168C92.5901 32.7382 93.4663 32.5263 94.3513 32.5548C97.8556 32.5548 100.165 35.3248 100.165 39.6035ZM97.2524 39.6035C97.2524 36.8082 95.8078 34.9704 93.6037 34.9704C91.4383 34.9704 89.9818 36.8469 89.9818 39.6035C89.9818 42.3854 91.4383 44.2485 93.6037 44.2485C95.8078 44.2485 97.2524 42.4241 97.2524 39.6035H97.2524Z" fill="white"/>
<path d="M110.209 41.2302C110.419 43.1081 112.243 44.3412 114.736 44.3412C117.125 44.3412 118.843 43.1081 118.843 41.4148C118.843 39.9449 117.807 39.0647 115.353 38.4616L112.898 37.8703C109.421 37.0304 107.807 35.4041 107.807 32.7651C107.807 29.4977 110.654 27.2534 114.697 27.2534C118.699 27.2534 121.442 29.4977 121.535 32.7651H118.674C118.502 30.8753 116.94 29.7345 114.657 29.7345C112.374 29.7345 110.812 30.8887 110.812 32.5686C110.812 33.9074 111.81 34.6952 114.251 35.2983L116.337 35.8106C120.222 36.7295 121.837 38.2903 121.837 41.0603C121.837 44.6032 119.015 46.8222 114.526 46.8222C110.326 46.8222 107.491 44.6553 107.308 41.23L110.209 41.2302Z" fill="white"/>
<path d="M127.954 29.4322V32.6996H130.579V34.9439H127.954V42.5555C127.954 43.738 128.479 44.289 129.633 44.289C129.945 44.2836 130.256 44.2617 130.566 44.2235V46.4544C130.047 46.5513 129.519 46.5952 128.992 46.5854C126.196 46.5854 125.106 45.5355 125.106 42.8578V34.9439H123.099V32.6996H125.106V29.4322H127.954Z" fill="white"/>
<path d="M132.1 39.6038C132.1 35.2597 134.658 32.5298 138.648 32.5298C142.651 32.5298 145.198 35.2596 145.198 39.6038C145.198 43.9599 142.664 46.6778 138.648 46.6778C134.633 46.6778 132.1 43.9599 132.1 39.6038ZM142.31 39.6038C142.31 36.6238 140.944 34.865 138.648 34.865C136.351 34.865 134.987 36.6372 134.987 39.6038C134.987 42.5957 136.351 44.3412 138.648 44.3412C140.944 44.3412 142.31 42.5957 142.31 39.6038H142.31Z" fill="white"/>
<path d="M147.534 32.6992H150.237V35.0492H150.303C150.486 34.3152 150.916 33.6666 151.52 33.2123C152.125 32.7581 152.868 32.5258 153.624 32.5547C153.95 32.5536 154.276 32.589 154.595 32.6604V35.3113C154.182 35.1853 153.752 35.1275 153.321 35.1401C152.91 35.1234 152.499 35.1959 152.118 35.3528C151.737 35.5097 151.395 35.7472 151.114 36.049C150.834 36.3508 150.622 36.7097 150.493 37.1012C150.364 37.4926 150.322 37.9072 150.368 38.3166V46.5061H147.534L147.534 32.6992Z" fill="white"/>
<path d="M167.662 42.4513C167.28 44.9577 164.84 46.6778 161.717 46.6778C157.7 46.6778 155.207 43.9867 155.207 39.6693C155.207 35.3386 157.713 32.5298 161.597 32.5298C165.417 32.5298 167.82 35.1539 167.82 39.3402V40.3112H158.068V40.4825C158.023 40.9906 158.087 41.5025 158.255 41.9842C158.423 42.4658 158.691 42.9062 159.042 43.2761C159.394 43.646 159.82 43.9369 160.292 44.1295C160.764 44.3221 161.272 44.412 161.782 44.3933C162.452 44.456 163.124 44.3009 163.698 43.951C164.273 43.6011 164.719 43.0751 164.971 42.4513L167.662 42.4513ZM158.081 38.3305H164.984C165.009 37.8736 164.94 37.4164 164.781 36.9876C164.621 36.5587 164.374 36.1675 164.056 35.8385C163.738 35.5094 163.356 35.2497 162.933 35.0755C162.51 34.9013 162.055 34.8165 161.597 34.8263C161.136 34.8235 160.678 34.9122 160.251 35.0872C159.824 35.2622 159.436 35.52 159.109 35.8458C158.782 36.1716 158.523 36.5589 158.347 36.9853C158.17 37.4118 158.08 37.869 158.081 38.3305V38.3305Z" fill="white"/>
<path d="M56.8765 17.1614H58.0933C58.3027 17.1875 58.5153 17.1699 58.7176 17.1098C58.9199 17.0496 59.1076 16.9482 59.2688 16.8119C59.43 16.6757 59.5612 16.5075 59.6541 16.318C59.7471 16.1285 59.7998 15.9218 59.8089 15.7109C59.8089 14.8717 59.1774 14.3296 58.1067 14.3296C57.8921 14.2996 57.6736 14.3129 57.4643 14.3688C57.2549 14.4246 57.0589 14.5218 56.8877 14.6547C56.7166 14.7875 56.5737 14.9533 56.4677 15.1423C56.3617 15.3312 56.2946 15.5395 56.2704 15.7548H54.9345C54.9575 15.364 55.0607 14.982 55.2377 14.6328C55.4147 14.2835 55.6617 13.9745 55.9633 13.7248C56.2649 13.4752 56.6147 13.2903 56.9909 13.1817C57.367 13.0731 57.7615 13.0431 58.1498 13.0935C59.9414 13.0935 61.2029 14.0965 61.2029 15.5404C61.2071 16.0241 61.0452 16.4946 60.7444 16.8733C60.4435 17.2521 60.0219 17.5162 59.5498 17.6216V17.7288C60.1094 17.7537 60.6365 17.9991 61.0158 18.4114C61.395 18.8237 61.5956 19.3694 61.5737 19.9292C61.5323 20.3316 61.4109 20.7218 61.2168 21.0767C61.0226 21.4316 60.7596 21.7442 60.4431 21.9962C60.1265 22.2482 59.7629 22.4344 59.3735 22.544C58.984 22.6536 58.5766 22.6843 58.1752 22.6345C57.7729 22.6893 57.3636 22.6626 56.9719 22.5559C56.5801 22.4492 56.2138 22.2647 55.8949 22.0135C55.5759 21.7622 55.3108 21.4493 55.1154 21.0934C54.9199 20.7375 54.7982 20.3459 54.7573 19.9419H56.114C56.196 20.8124 56.9957 21.3739 58.1752 21.3739C59.3547 21.3739 60.1246 20.7432 60.1246 19.8541C60.1246 18.9523 59.3993 18.3968 58.132 18.3968H56.8765V17.1614Z" fill="white"/>
<path d="M63.1152 20.4715C63.1152 19.2354 64.0371 18.5228 65.6693 18.4215L67.5294 18.3143V17.7216C67.5294 16.9963 67.0513 16.5868 66.1235 16.5868C65.367 16.5868 64.8443 16.8645 64.6924 17.35H63.3803C63.5188 16.1705 64.6298 15.414 66.1876 15.414C67.9092 15.414 68.8802 16.2711 68.8802 17.7216V22.4135H67.5741V21.4485H67.4669C67.2492 21.7946 66.9436 22.0768 66.5812 22.2663C66.2188 22.4557 65.8127 22.5455 65.4042 22.5266C65.116 22.5566 64.8246 22.5259 64.5489 22.4364C64.2733 22.3468 64.0194 22.2006 63.8038 22.0069C63.5881 21.8133 63.4154 21.5766 63.2968 21.3122C63.1782 21.0477 63.1164 20.7613 63.1152 20.4715ZM67.5294 19.8847V19.3106L65.8524 19.4179C64.9067 19.4811 64.4778 19.8028 64.4778 20.4082C64.4778 21.0262 65.014 21.3859 65.7512 21.3859C65.9672 21.4078 66.1854 21.386 66.3928 21.3218C66.6003 21.2576 66.7926 21.1524 66.9586 21.0123C67.1245 20.8722 67.2605 20.7002 67.3586 20.5065C67.4566 20.3128 67.5147 20.1014 67.5294 19.8847Z" fill="white"/>
<path d="M72.4763 16.6873V22.4135H71.1211V15.5465H75.6425V16.6872L72.4763 16.6873Z" fill="white"/>
<path d="M83.8561 18.9782C83.8561 21.1599 82.7526 22.5278 81.0191 22.5278C80.5935 22.5569 80.1686 22.4638 79.7942 22.2594C79.4198 22.0551 79.1116 21.748 78.9058 21.3744H78.7986V24.6977H77.4434V15.5477H78.748V16.6825H78.8492C79.0587 16.2959 79.3709 15.9746 79.7514 15.7542C80.132 15.5339 80.5661 15.423 81.0057 15.4338C82.7526 15.4337 83.8561 16.7957 83.8561 18.9782ZM82.4622 18.9782C82.4622 17.5276 81.7756 16.6512 80.6274 16.6512C79.4867 16.6512 78.7733 17.5462 78.7733 18.9841C78.7733 20.4153 79.4866 21.3111 80.6214 21.3111C81.7756 21.3111 82.4622 20.4347 82.4622 18.9782Z" fill="white"/>
<path d="M85.6609 24.873V23.7062C85.8076 23.7248 85.9554 23.7333 86.1032 23.7315C86.3919 23.7529 86.6784 23.6669 86.9076 23.49C87.1368 23.3131 87.2927 23.0578 87.3452 22.7731L87.4465 22.4388L84.9609 15.5465H86.4368L88.1584 21.0009H88.2657L89.9813 15.5465H91.4184L88.8584 22.6972C88.2716 24.3681 87.6223 24.9043 86.2224 24.9043C86.1092 24.9043 85.7875 24.8916 85.6609 24.873Z" fill="white"/>
<path d="M92.4741 20.4649H93.8234C93.9559 21.0704 94.5234 21.386 95.3171 21.386C96.2196 21.386 96.7736 20.9884 96.7736 20.3704C96.7736 19.7084 96.2762 19.3927 95.3171 19.3927H94.2895V18.3398H95.2992C96.1183 18.3398 96.5353 18.0248 96.5353 17.4507C96.5353 16.9466 96.1317 16.5616 95.2992 16.5616C94.5412 16.5616 93.9872 16.8833 93.8993 17.4254H92.5933C92.6909 16.8025 93.0291 16.2428 93.5352 15.8667C94.0412 15.4906 94.6746 15.3281 95.2992 15.4142C96.9315 15.4142 97.8652 16.1521 97.8652 17.3122C97.8729 17.6353 97.7693 17.9512 97.572 18.2071C97.3747 18.463 97.0954 18.6434 96.7811 18.7181V18.8253C97.1554 18.8736 97.4989 19.0576 97.7465 19.3424C97.9942 19.6272 98.1286 19.993 98.1244 20.3704C98.1244 21.6758 97.0134 22.5395 95.3171 22.5395C93.8174 22.5395 92.5992 21.8522 92.4741 20.4649Z" fill="white"/>
<path d="M100.076 22.4135V15.5465H101.419V20.2697H101.527L104.691 15.5465H106.035V22.4135H104.691V17.665H104.59L101.419 22.4135L100.076 22.4135Z" fill="white"/>
<path d="M113.435 16.6884H111.272V22.4146H109.915V16.6884H107.753V15.5477H113.435V16.6884Z" fill="white"/>
<path d="M120.735 20.5595C120.55 21.187 120.151 21.7298 119.607 22.0929C119.063 22.456 118.408 22.6164 117.758 22.5461C117.306 22.5581 116.856 22.4714 116.44 22.2922C116.025 22.113 115.653 21.8454 115.352 21.5082C115.05 21.171 114.825 20.7721 114.693 20.3393C114.56 19.9064 114.524 19.45 114.586 19.0017C114.526 18.552 114.563 18.0946 114.695 17.6605C114.827 17.2263 115.05 16.8256 115.35 16.4854C115.651 16.1453 116.02 15.8735 116.435 15.6887C116.849 15.5039 117.298 15.4102 117.752 15.4141C119.663 15.4141 120.817 16.7195 120.817 18.8758V19.3487H115.968V19.4247C115.946 19.6767 115.978 19.9305 116.06 20.1696C116.143 20.4088 116.274 20.628 116.447 20.8133C116.619 20.9986 116.828 21.1458 117.061 21.2454C117.293 21.3451 117.544 21.395 117.797 21.3919C118.121 21.4307 118.449 21.3722 118.74 21.224C119.03 21.0757 119.27 20.8444 119.429 20.5594L120.735 20.5595ZM115.968 18.3464H119.435C119.452 18.1161 119.421 17.8847 119.343 17.6671C119.266 17.4496 119.143 17.2506 118.984 17.0831C118.825 16.9156 118.633 16.7832 118.42 16.6944C118.206 16.6056 117.977 16.5624 117.746 16.5675C117.512 16.5643 117.279 16.6082 117.062 16.6964C116.844 16.7847 116.647 16.9157 116.481 17.0815C116.316 17.2473 116.185 17.4447 116.097 17.662C116.008 17.8792 115.965 18.112 115.968 18.3464H115.968Z" fill="white"/>
<path d="M126.48 15.5465H129.577C130.92 15.5465 131.708 16.2271 131.708 17.2926C131.71 17.6307 131.596 17.9593 131.385 18.2233C131.173 18.4874 130.878 18.6709 130.548 18.7432V18.8504C130.949 18.8757 131.325 19.0541 131.598 19.3487C131.871 19.6434 132.021 20.0317 132.016 20.4335C132.016 21.6316 131.115 22.4134 129.608 22.4134H126.48V15.5465ZM127.824 16.5868V18.3649H129.167C129.986 18.3649 130.378 18.0499 130.378 17.4691C130.378 16.9337 130.037 16.5867 129.318 16.5867L127.824 16.5868ZM127.824 19.3612V21.3732H129.431C130.232 21.3732 130.661 21.0195 130.661 20.3702C130.661 19.6829 130.175 19.3613 129.261 19.3613L127.824 19.3612Z" fill="white"/>
</svg>
