<svg width="44" height="44" viewBox="0 0 44 44" fill="none" xmlns="http://www.w3.org/2000/svg">
<rect x="0.5" y="0.5" width="43" height="43" rx="21.5" fill="#FDFDFD"/>
<rect x="0.5" y="0.5" width="43" height="43" rx="21.5" stroke="#F2F5F9"/>
<path d="M21.9993 30.0416C21.741 30.0416 21.491 30.0083 21.2827 29.9333C18.0993 28.8416 13.041 24.9666 13.041 19.2416C13.041 16.3249 15.3993 13.9583 18.2993 13.9583C19.7077 13.9583 21.0243 14.5083 21.9993 15.4916C22.9743 14.5083 24.291 13.9583 25.6993 13.9583C28.5993 13.9583 30.9577 16.3333 30.9577 19.2416C30.9577 24.9749 25.8993 28.8416 22.716 29.9333C22.5077 30.0083 22.2577 30.0416 21.9993 30.0416ZM18.2993 15.2083C16.091 15.2083 14.291 17.0166 14.291 19.2416C14.291 24.9333 19.766 28.0999 21.691 28.7583C21.841 28.8083 22.166 28.8083 22.316 28.7583C24.2327 28.0999 29.716 24.9416 29.716 19.2416C29.716 17.0166 27.916 15.2083 25.7077 15.2083C24.441 15.2083 23.266 15.7999 22.5077 16.8249C22.2743 17.1416 21.741 17.1416 21.5077 16.8249C20.7327 15.7916 19.566 15.2083 18.2993 15.2083Z" fill="#263141"/>
</svg>
