<svg width="44" height="44" viewBox="0 0 44 44" fill="none" xmlns="http://www.w3.org/2000/svg">
<rect x="0.5" y="0.5" width="43" height="43" rx="21.5" fill="#FDFDFD"/>
<rect x="0.5" y="0.5" width="43" height="43" rx="21.5" stroke="#F2F5F9"/>
<path d="M21.9974 30.0417C21.7391 30.0417 21.4891 30.0084 21.2807 29.9334C18.0974 28.8417 13.0391 24.9667 13.0391 19.2417C13.0391 16.325 15.3974 13.9584 18.2974 13.9584C19.7057 13.9584 21.0224 14.5084 21.9974 15.4917C22.9724 14.5084 24.2891 13.9584 25.6974 13.9584C28.5974 13.9584 30.9557 16.3334 30.9557 19.2417C30.9557 24.975 25.8974 28.8417 22.7141 29.9334C22.5057 30.0084 22.2557 30.0417 21.9974 30.0417ZM18.2974 15.2084C16.0891 15.2084 14.2891 17.0167 14.2891 19.2417C14.2891 24.9334 19.7641 28.1 21.6891 28.7584C21.8391 28.8084 22.1641 28.8084 22.3141 28.7584C24.2307 28.1 29.7141 24.9417 29.7141 19.2417C29.7141 17.0167 27.9141 15.2084 25.7057 15.2084C24.4391 15.2084 23.2641 15.8 22.5057 16.825C22.2724 17.1417 21.7391 17.1417 21.5057 16.825C20.7307 15.7917 19.5641 15.2084 18.2974 15.2084Z" fill="#263141"/>
</svg>
