<svg width="205" height="61" viewBox="0 0 205 61" fill="none" xmlns="http://www.w3.org/2000/svg">
<rect width="204.851" height="61" rx="10" fill="#0F1113"/>
<path d="M31.1171 29.4738L14.9624 46.6201C14.963 46.6237 14.9642 46.6267 14.9648 46.6302C15.4603 48.492 17.1608 49.8629 19.179 49.8629C19.9858 49.8629 20.7433 49.6448 21.3929 49.2619L21.4445 49.2317L39.6287 38.7387L31.1171 29.4738Z" fill="#EB3131"/>
<path d="M47.4607 26.5541L47.4452 26.5434L39.5946 21.9924L30.75 29.8627L39.6254 38.7369L47.4346 34.2311C48.8037 33.492 49.7331 32.0486 49.7331 30.3842C49.7331 28.7318 48.8162 27.2956 47.4607 26.5541Z" fill="#F6B60B"/>
<path d="M14.9616 14.0771C14.8645 14.4352 14.8135 14.8103 14.8135 15.1998V45.4982C14.8135 45.887 14.8639 46.2633 14.9622 46.6202L31.6729 29.9125L14.9616 14.0771Z" fill="#5778C5"/>
<path d="M31.2359 30.3487L39.5975 21.9895L21.4339 11.4586C20.7737 11.0631 20.0032 10.8349 19.1787 10.8349C17.1604 10.8349 15.4576 12.2083 14.962 14.0724C14.9614 14.0742 14.9614 14.0754 14.9614 14.0771L31.2359 30.3487Z" fill="#3BAD49"/>
<path d="M162.266 45.6742H165.098V26.7047H162.266V45.6742ZM187.769 33.5379L184.523 41.7621H184.426L181.058 33.5379H178.008L183.059 45.0327L180.179 51.4267H183.134L190.918 33.5379H187.769ZM171.712 43.5196C170.783 43.5196 169.49 43.056 169.49 41.9085C169.49 40.4444 171.102 39.8831 172.492 39.8831C173.738 39.8831 174.322 40.1515 175.079 40.518C174.859 42.2749 173.346 43.5196 171.712 43.5196ZM172.053 33.1229C170.003 33.1229 167.88 34.0262 167.002 36.0274L169.515 37.0765C170.052 36.0274 171.052 35.6853 172.102 35.6853C173.566 35.6853 175.055 36.5644 175.079 38.1262V38.3212C174.566 38.0284 173.469 37.5892 172.126 37.5892C169.418 37.5892 166.659 39.0775 166.659 41.8598C166.659 44.398 168.88 46.0333 171.369 46.0333C173.273 46.0333 174.322 45.1792 174.982 44.1787H175.079V45.6427H177.812V38.3698C177.812 35.0025 175.299 33.1229 172.053 33.1229ZM154.555 35.8471H150.527V29.3448H154.555C156.671 29.3448 157.873 31.0974 157.873 32.5959C157.873 34.066 156.671 35.8471 154.555 35.8471ZM154.482 26.7047H147.697V45.6742H150.527V38.4872H154.482C157.62 38.4872 160.705 36.2152 160.705 32.5959C160.705 28.9767 157.62 26.7047 154.482 26.7047ZM117.486 43.5231C115.53 43.5231 113.892 41.8853 113.892 39.6359C113.892 37.3628 115.53 35.7002 117.486 35.7002C119.417 35.7002 120.932 37.3628 120.932 39.6359C120.932 41.8853 119.417 43.5231 117.486 43.5231ZM120.737 34.6001H120.639C120.004 33.8424 118.781 33.1579 117.241 33.1579C114.014 33.1579 111.056 35.9935 111.056 39.6359C111.056 43.254 114.014 46.0653 117.241 46.0653C118.781 46.0653 120.004 45.3807 120.639 44.5989H120.737V45.5277C120.737 47.9972 119.417 49.3172 117.29 49.3172C115.554 49.3172 114.479 48.07 114.038 47.019L111.57 48.0457C112.279 49.7569 114.161 51.8594 117.29 51.8594C120.615 51.8594 123.426 49.9033 123.426 45.1365V33.5491H120.737V34.6001ZM125.382 45.6742H128.217V26.7041H125.382V45.6742ZM132.398 39.416C132.324 36.9223 134.329 35.6515 135.771 35.6515C136.896 35.6515 137.849 36.2134 138.167 37.0208L132.398 39.416ZM141.198 37.265C140.661 35.8222 139.022 33.1579 135.673 33.1579C132.349 33.1579 129.586 35.7736 129.586 39.6116C129.586 43.2298 132.324 46.0653 135.991 46.0653C138.95 46.0653 140.661 44.2563 141.37 43.2053L139.17 41.7383C138.437 42.8141 137.434 43.5231 135.991 43.5231C134.549 43.5231 133.522 42.8628 132.862 41.5676L141.491 37.9982L141.198 37.265ZM72.447 35.1382V37.876H78.9985C78.8029 39.416 78.2895 40.5404 77.5072 41.3228C76.5541 42.2765 75.0628 43.3275 72.447 43.3275C68.4133 43.3275 65.26 40.0763 65.26 36.0427C65.26 32.0091 68.4133 28.7574 72.447 28.7574C74.6229 28.7574 76.2114 29.6133 77.385 30.7134L79.3162 28.7823C77.6785 27.2174 75.5025 26.0196 72.447 26.0196C66.922 26.0196 62.2773 30.5178 62.2773 36.0427C62.2773 41.5676 66.922 46.0653 72.447 46.0653C75.4297 46.0653 77.6785 45.088 79.4384 43.254C81.2474 41.445 81.8099 38.9027 81.8099 36.8495C81.8099 36.2134 81.7612 35.6272 81.6629 35.1382H72.447ZM89.2583 43.5231C87.3022 43.5231 85.6153 41.9096 85.6153 39.6116C85.6153 37.2892 87.3022 35.7002 89.2583 35.7002C91.2137 35.7002 92.9006 37.2892 92.9006 39.6116C92.9006 41.9096 91.2137 43.5231 89.2583 43.5231ZM89.2583 33.1579C85.6888 33.1579 82.7796 35.8714 82.7796 39.6116C82.7796 43.3275 85.6888 46.0653 89.2583 46.0653C92.8271 46.0653 95.7363 43.3275 95.7363 39.6116C95.7363 35.8714 92.8271 33.1579 89.2583 33.1579ZM103.39 43.5231C101.435 43.5231 99.7479 41.9096 99.7479 39.6116C99.7479 37.2892 101.435 35.7002 103.39 35.7002C105.346 35.7002 107.033 37.2892 107.033 39.6116C107.033 41.9096 105.346 43.5231 103.39 43.5231ZM103.39 33.1579C99.8209 33.1579 96.9123 35.8714 96.9123 39.6116C96.9123 43.3275 99.8209 46.0653 103.39 46.0653C106.959 46.0653 109.868 43.3275 109.868 39.6116C109.868 35.8714 106.959 33.1579 103.39 33.1579Z" fill="white"/>
<path d="M66.0024 15.2755C66.0202 16.7158 65.7316 17.8775 65.1387 18.7596H69.7413V11.8921H66.0024V15.2755ZM63.9041 21.8104H62.7856V18.7596H63.6759C64.4642 18.0803 64.8495 16.9197 64.8335 15.2755V10.7736H70.912V18.7596H71.9287V21.8104H70.8096V19.8781H63.9041V21.8104Z" fill="white"/>
<path d="M66.0023 15.2754L65.8506 15.2773L65.8518 15.3999C65.8512 16.7627 65.5666 17.851 65.0123 18.6748L64.8536 18.9113H69.8929V11.7403H65.8506V15.2767V15.2773L66.0023 15.2754H66.154V12.0438H69.5895V18.6078H65.1386V18.7596L65.2644 18.8438C65.8612 17.9558 66.1553 16.8035 66.1553 15.3999L66.154 15.2736L66.0023 15.2754H66.154H66.0023ZM63.904 21.8103V21.6586H62.9373V18.9113H63.6758H63.7321L63.7747 18.8746C64.595 18.1669 64.9858 16.9879 64.9858 15.375L64.9852 15.2742V15.2754V10.9253H70.7601V18.9113H71.7768V21.6586H70.9612V19.8781V19.7263H63.7523V21.8103H63.904V21.6586V21.8103H64.0558V20.0298H70.6577V21.8103V21.9621H71.9286H72.0803V18.6078H71.0636V10.6218H64.6817V15.2761V15.2767L64.6823 15.375C64.6817 16.9452 64.3011 18.0223 63.5767 18.644L63.6758 18.7596V18.6078H62.7855H62.6338V21.9621H63.904H64.0558V21.8103H63.904Z" fill="white"/>
<path d="M75.2401 17.9392C75.9146 18.6215 76.7386 18.9623 77.7136 18.9623C78.6886 18.9623 79.5137 18.6215 80.1864 17.9392C80.8611 17.257 81.1988 16.3849 81.1988 15.3258C81.1988 14.2666 80.8611 13.3946 80.1864 12.7123C79.5137 12.0301 78.6886 11.6893 77.7136 11.6893C76.7386 11.6893 75.9146 12.0301 75.2401 12.7123C74.5673 13.3946 74.2295 14.2666 74.2295 15.3258C74.2295 16.3849 74.5673 17.257 75.2401 17.9392ZM81.052 18.7014C80.1568 19.6219 79.0443 20.0814 77.7136 20.0814C76.3829 20.0814 75.2697 19.6219 74.3764 18.7014C73.4814 17.782 73.0352 16.6566 73.0352 15.3258C73.0352 13.995 73.4814 12.8694 74.3764 11.9501C75.2697 11.0295 76.3829 10.5696 77.7136 10.5696C79.0365 10.5696 80.1468 11.032 81.0459 11.9561C81.9439 12.8802 82.3932 14.0034 82.3932 15.3258C82.3932 16.6566 81.9457 17.782 81.052 18.7014Z" fill="white"/>
<path d="M75.24 17.9394L75.1321 18.046C75.8309 18.7556 76.7028 19.116 77.7135 19.1142C78.7235 19.116 79.5972 18.7556 80.2942 18.046C80.9978 17.3359 81.3517 16.4171 81.3505 15.3259C81.3517 14.2348 80.9978 13.316 80.2942 12.6058C79.5972 11.8963 78.7235 11.5359 77.7135 11.5377C76.7028 11.5359 75.8309 11.8963 75.1321 12.6058C74.4303 13.316 74.0764 14.2348 74.0777 15.3259C74.0764 16.4171 74.4303 17.3359 75.1321 18.046L75.24 17.9394L75.3485 17.8327C74.7047 17.1776 74.3828 16.3537 74.3811 15.3259C74.3828 14.2982 74.7047 13.4742 75.3485 12.8192H75.3479C75.9975 12.1643 76.7733 11.843 77.7135 11.8412C78.653 11.843 79.4306 12.1643 80.0784 12.8192L80.0808 12.8216L80.0784 12.8192C80.7239 13.4742 81.0453 14.2982 81.047 15.3259C81.0453 16.3537 80.7239 17.1776 80.0784 17.8327C79.4306 18.4876 78.653 18.8088 77.7135 18.8107C76.7733 18.8088 75.9975 18.4876 75.3479 17.8327L75.24 17.9394ZM81.0518 18.7016L80.9433 18.5961C80.0737 19.4876 79.0093 19.9279 77.7135 19.9298C76.4172 19.9279 75.3532 19.4876 74.4848 18.5961C73.617 17.7016 73.1885 16.6229 73.1868 15.3259C73.1885 14.029 73.617 12.9503 74.4848 12.0558C75.3532 11.1643 76.4172 10.7233 77.7135 10.7215C79.0015 10.7233 80.0631 11.1661 80.9374 12.0623C81.8087 12.9609 82.2397 14.038 82.2413 15.3259C82.2397 16.6229 81.8099 17.7016 80.9433 18.5961L81.0518 18.7016L81.1608 18.807C82.0808 17.8623 82.546 16.6904 82.5448 15.3259C82.546 13.9692 82.0796 12.7997 81.1549 11.8507C80.2302 10.8981 79.0721 10.4163 77.7135 10.418C76.3479 10.4163 75.186 10.8958 74.2673 11.8448V11.8442C73.3455 12.7896 72.8821 13.9615 72.8833 15.3259C72.8821 16.6904 73.3455 17.8623 74.2673 18.8076V18.807C75.186 19.756 76.3479 20.2345 77.7135 20.2332C79.0786 20.2345 80.2403 19.756 81.1608 18.807L81.0518 18.7016Z" fill="white"/>
<path d="M88.2818 20.0814C86.9423 20.0814 85.8191 19.628 84.9121 18.7204C84.0035 17.8136 83.5518 16.6819 83.5518 15.3258C83.5518 13.9695 84.0035 12.838 84.9121 11.9312C85.8191 11.0236 86.9423 10.5696 88.2818 10.5696C89.654 10.5696 90.7696 11.0658 91.6261 12.0574L90.8111 12.8463C90.1935 12.0746 89.3487 11.6893 88.2818 11.6893C87.289 11.6893 86.4514 12.0242 85.7698 12.694C85.0869 13.3638 84.7461 14.2411 84.7461 15.3258C84.7461 16.4104 85.0869 17.2884 85.7698 17.9576C86.4514 18.6274 87.289 18.9623 88.2818 18.9623C89.3754 18.9623 90.3073 18.5218 91.0795 17.6404L91.8928 18.4536C91.4768 18.9539 90.9563 19.3504 90.3279 19.6421C89.7014 19.9349 89.0181 20.0814 88.2818 20.0814Z" fill="white"/>
<path d="M88.2822 20.0815V19.9298C86.9765 19.9279 85.9006 19.4923 85.0198 18.6133C84.1395 17.733 83.7051 16.6484 83.7039 15.3259C83.7051 14.0035 84.1395 12.9189 85.0198 12.0386C85.9006 11.159 86.9765 10.7233 88.2822 10.7215C89.6183 10.7239 90.6805 11.1969 91.5114 12.1565L91.6264 12.0576L91.521 11.9485L90.706 12.738L90.8114 12.8465L90.93 12.7516C90.2863 11.9444 89.3848 11.5354 88.2822 11.5377C87.2549 11.5365 86.3712 11.8893 85.6641 12.5856C84.9498 13.2846 84.5929 14.2103 84.5948 15.3259C84.5929 16.4415 84.9498 17.3685 85.6641 18.0662C86.3712 18.7626 87.2549 19.1154 88.2822 19.1142C89.4172 19.116 90.4007 18.65 91.1937 17.7407L91.0799 17.6406L90.9726 17.7479L91.7859 18.5611L91.8932 18.4538L91.7764 18.3573C91.3746 18.8397 90.8743 19.2214 90.2643 19.5047C89.6579 19.788 88.9989 19.9292 88.2822 19.9298V20.0815V20.2332C89.0385 20.2332 89.7452 20.0827 90.3923 19.7798C91.0397 19.4798 91.5791 19.0691 92.0099 18.551L92.0982 18.445L91.1873 17.5333L91.0723 17.4183L90.9656 17.5404C90.2151 18.3946 89.3344 18.8088 88.2822 18.8107C87.3232 18.8088 86.5331 18.4923 85.8768 17.8492H85.8764C85.2243 17.209 84.8995 16.3798 84.8982 15.3259C84.8995 14.2721 85.2243 13.444 85.8764 12.8026H85.8768C86.5331 12.1595 87.3232 11.843 88.2822 11.8412C89.313 11.8436 90.1007 12.2052 90.6929 12.9413L90.7972 13.0718L91.7319 12.1667L91.8351 12.067L91.7415 11.9586C90.86 10.9344 89.6905 10.4163 88.2822 10.418C86.9082 10.4168 85.7375 10.8893 84.8052 11.824C83.8681 12.757 83.3986 13.9366 83.4004 15.3259C83.3986 16.7153 83.8681 17.8949 84.8052 18.8284C85.7375 19.7625 86.9082 20.2345 88.2822 20.2332V20.0815Z" fill="white"/>
<path d="M96.6245 19.8782H95.454V11.8922H92.9111V10.7737H99.1674V11.8922H96.6245V19.8782Z" fill="white"/>
<path d="M96.6249 19.8781V19.7264H95.6061V11.7404H93.0632V10.9254H99.0161V11.7404H96.4732V19.8781H96.6249V19.7264V19.8781H96.7767V12.0439H99.3195V10.7737V10.6219H92.7598V11.8921V12.0439H95.3026V20.0299H96.6249H96.7767V19.8781H96.6249Z" fill="white"/>
<path d="M107.2 10.7735L103.755 18.4536C103.279 19.539 102.573 20.0814 101.632 20.0814C101.352 20.0814 101.051 20.0138 100.728 19.878L101.033 18.7969C101.229 18.9076 101.432 18.9623 101.644 18.9623C101.915 18.9623 102.125 18.9095 102.274 18.804C102.422 18.6979 102.559 18.504 102.687 18.2248L103.018 17.4993L99.9531 10.7735H101.327L103.577 15.9997H103.628L105.826 10.7735H107.2Z" fill="white"/>
<path d="M107.2 10.7737L107.061 10.7115L103.616 18.3921L103.616 18.3934C103.148 19.4454 102.508 19.9244 101.632 19.9297C101.376 19.9297 101.095 19.8681 100.787 19.7382L100.728 19.8781L100.874 19.9196L101.179 18.8384L101.033 18.797L100.959 18.9292C101.175 19.0513 101.405 19.1147 101.644 19.1141C101.934 19.1141 102.177 19.059 102.362 18.9273C102.545 18.7952 102.691 18.58 102.825 18.2884L103.156 17.5629L103.184 17.4994L100.189 10.9254H101.227L103.477 16.1515H103.628H103.728L105.927 10.9254H107.2V10.7737L107.061 10.7115L107.2 10.7737V10.6219H105.826H105.725L103.487 15.9412L103.628 15.9998V15.8481H103.577V15.9998L103.717 15.94L101.427 10.6219H99.9532H99.7173L102.851 17.4994L102.549 18.1621C102.429 18.4283 102.299 18.6002 102.186 18.6801C102.075 18.7603 101.896 18.8113 101.644 18.8106C101.458 18.8106 101.283 18.7638 101.108 18.6648L100.94 18.57L100.582 19.8367L100.545 19.9659L100.669 20.018C101.006 20.1596 101.327 20.2332 101.632 20.2332C102.638 20.2379 103.411 19.6322 103.894 18.5149L103.893 18.516L107.434 10.6219H107.2V10.7737Z" fill="white"/>
<path d="M108.524 19.8782V10.7737H115.111V19.8782H113.941V11.8922H109.693V19.8782H108.524Z" fill="white"/>
<path d="M108.525 19.8781H108.677V10.9254H114.96V19.7264H114.093V11.7404H109.542V19.7264H108.525V19.8781H108.677H108.525V20.0299H109.694H109.845V12.0439H113.79V20.0299H115.112H115.264V10.6219H108.373V20.0299H108.525V19.8781Z" fill="white"/>
<path d="M117.196 19.8782V10.7737H118.366V14.6769H122.918V10.7737H124.089V19.8782H122.918V15.7705H118.366V19.8782H117.196Z" fill="white"/>
<path d="M117.197 19.8781H117.348V10.9254H118.214V14.8286H123.07V10.9254H123.937V19.7264H123.07V15.6188H118.214V19.7264H117.197V19.8781H117.348H117.197V20.0299H118.366H118.518V15.9222H122.767V20.0299H124.089H124.241V10.6219H122.918H122.767V14.5252H118.518V10.6219H117.197H117.045V20.0299H117.197V19.8781Z" fill="white"/>
<path d="M127.807 17.9392C128.482 18.6215 129.306 18.9623 130.281 18.9623C131.256 18.9623 132.081 18.6215 132.754 17.9392C133.428 17.257 133.766 16.3849 133.766 15.3258C133.766 14.2666 133.428 13.3946 132.754 12.7123C132.081 12.0301 131.256 11.6893 130.281 11.6893C129.306 11.6893 128.482 12.0301 127.807 12.7123C127.135 13.3946 126.797 14.2666 126.797 15.3258C126.797 16.3849 127.135 17.257 127.807 17.9392ZM133.619 18.7014C132.725 19.6219 131.612 20.0814 130.281 20.0814C128.95 20.0814 127.838 19.6219 126.944 18.7014C126.049 17.782 125.603 16.6566 125.603 15.3258C125.603 13.995 126.049 12.8694 126.944 11.9501C127.838 11.0295 128.95 10.5696 130.281 10.5696C131.605 10.5696 132.714 11.032 133.613 11.9561C134.511 12.8802 134.961 14.0034 134.961 15.3258C134.961 16.6566 134.513 17.782 133.619 18.7014Z" fill="white"/>
<path d="M127.807 17.9394L127.7 18.046C128.399 18.7556 129.27 19.116 130.281 19.1142C131.292 19.116 132.165 18.7556 132.862 18.046C133.565 17.3359 133.919 16.4171 133.918 15.3259C133.919 14.2348 133.565 13.316 132.862 12.6058C132.165 11.8963 131.292 11.5359 130.281 11.5377C129.27 11.5359 128.399 11.8963 127.7 12.6058C126.998 13.316 126.644 14.2348 126.645 15.3259C126.644 16.4171 126.998 17.3359 127.7 18.046L127.807 17.9394L127.916 17.8327C127.272 17.1776 126.95 16.3537 126.949 15.3259C126.95 14.2982 127.272 13.4742 127.916 12.8192C128.565 12.1643 129.341 11.843 130.281 11.8412C131.22 11.843 131.998 12.1643 132.646 12.8192L132.651 12.824L132.646 12.8192C133.291 13.4742 133.613 14.2982 133.615 15.3259C133.613 16.3537 133.291 17.1776 132.646 17.8327C131.998 18.4876 131.22 18.8088 130.281 18.8107C129.341 18.8088 128.565 18.4876 127.916 17.8327L127.807 17.9394ZM133.619 18.7016L133.511 18.5961C132.641 19.4876 131.577 19.9279 130.281 19.9298C128.985 19.9279 127.921 19.4876 127.053 18.5961L127.048 18.5914L127.053 18.5961C126.185 17.7016 125.756 16.6229 125.754 15.3259C125.756 14.029 126.185 12.9503 127.053 12.0558C127.921 11.1643 128.985 10.7233 130.281 10.7215C131.569 10.7233 132.631 11.1661 133.505 12.0623C134.376 12.9609 134.808 14.038 134.809 15.3259C134.808 16.6229 134.377 17.7016 133.511 18.5961L133.619 18.7016L133.728 18.807C134.649 17.8623 135.114 16.6904 135.112 15.3259C135.114 13.9692 134.647 12.7997 133.722 11.8507C132.798 10.8981 131.639 10.4163 130.281 10.418C128.915 10.4163 127.754 10.8958 126.835 11.8448V11.8442C125.913 12.7896 125.449 13.9615 125.451 15.3259C125.449 16.6904 125.913 17.8623 126.835 18.8076V18.807C127.754 19.756 128.915 20.2345 130.281 20.2332C131.647 20.2345 132.808 19.756 133.728 18.807L133.619 18.7016Z" fill="white"/>
<path d="M140.913 18.7597H143.267C143.716 18.7597 144.08 18.6026 144.361 18.2879C144.64 17.9755 144.779 17.6316 144.779 17.2582C144.779 16.8854 144.635 16.5446 144.347 16.2352C144.06 15.9258 143.681 15.7705 143.215 15.7705H140.913V18.7597ZM140.913 14.6769H143.037C143.479 14.6769 143.833 14.5317 144.1 14.2382C144.367 13.946 144.5 13.6266 144.5 13.2786C144.5 12.9313 144.371 12.6123 144.112 12.3255C143.854 12.0368 143.512 11.8922 143.089 11.8922H140.913V14.6769ZM139.745 19.8782V10.7737H143.037C143.749 10.7737 144.367 11.0096 144.887 11.479C145.409 11.9503 145.67 12.5412 145.67 13.2531C145.67 13.6851 145.558 14.0669 145.332 14.3977C145.109 14.7284 144.81 14.9786 144.436 15.1481V15.1985C144.884 15.3508 145.254 15.6139 145.543 15.9868C145.829 16.3602 145.975 16.793 145.975 17.2843C145.975 18.0299 145.702 18.6487 145.154 19.1402C144.608 19.6322 143.962 19.8782 143.215 19.8782H139.745Z" fill="white"/>
<path d="M140.913 18.7596V18.9114H143.266C143.75 18.9132 144.168 18.7354 144.473 18.3891C144.773 18.0554 144.933 17.6701 144.931 17.2582C144.933 16.8457 144.767 16.4621 144.458 16.1315C144.143 15.7905 143.714 15.6169 143.215 15.6188H140.761V18.9114H140.913V18.7596H141.065V15.9222H143.215C143.649 15.9239 143.975 16.0615 144.236 16.3383C144.503 16.6275 144.626 16.9257 144.628 17.2582C144.626 17.5931 144.506 17.8955 144.247 18.187C143.993 18.4692 143.681 18.6055 143.266 18.6079H140.913V18.7596H141.065H140.913ZM140.913 14.6769V14.8286H143.037C143.511 14.8303 143.917 14.6667 144.212 14.3402V14.3408C144.499 14.0277 144.652 13.6661 144.652 13.2786C144.652 12.8933 144.505 12.5329 144.224 12.2235V12.2241C143.94 11.9028 143.546 11.7386 143.089 11.7404H140.761V14.8286H140.913V14.6769H141.065V12.0439H143.089C143.479 12.0463 143.767 12.1707 143.998 12.4263L143.999 12.4273L143.998 12.4269C144.236 12.6924 144.347 12.9698 144.348 13.2786C144.347 13.5862 144.233 13.8648 143.987 14.1356V14.1362C143.747 14.3965 143.445 14.5233 143.037 14.5252H140.913V14.6769H141.065H140.913ZM139.745 19.8781H139.896V10.9254H143.037C143.716 10.9266 144.289 11.1459 144.785 11.5917C145.279 12.0386 145.517 12.5786 145.518 13.2531C145.518 13.6592 145.414 14.0071 145.207 14.3123C144.998 14.6206 144.723 14.8505 144.373 15.01L144.285 15.0503V15.1984V15.3069L144.386 15.3418C144.81 15.4866 145.151 15.7295 145.423 16.0799L145.424 16.0816L145.423 16.0793C145.69 16.4278 145.823 16.8225 145.823 17.2843C145.822 17.9932 145.57 18.5604 145.052 19.0276C144.53 19.4953 143.928 19.7252 143.215 19.7264H139.745V19.8781H139.896H139.745V20.0299H143.215C143.995 20.0311 144.684 19.769 145.256 19.2528C145.832 18.7376 146.128 18.0673 146.127 17.2843C146.128 16.7633 145.97 16.2926 145.662 15.8943L145.661 15.8925L145.662 15.8937C145.357 15.499 144.96 15.2156 144.485 15.055L144.436 15.1984H144.588V15.1481H144.436L144.499 15.2861C144.895 15.1066 145.219 14.8368 145.458 14.4824V14.483C145.7 14.1268 145.822 13.7112 145.822 13.2531C145.823 12.5044 145.541 11.8619 144.989 11.3664L144.986 11.3635L144.989 11.3664C144.442 10.8726 143.782 10.6207 143.037 10.6219H139.593V20.0299H139.745V19.8781Z" fill="white"/>
</svg>
