<svg width="44" height="44" viewBox="0 0 44 44" fill="none" xmlns="http://www.w3.org/2000/svg">
<rect x="0.5" y="0.5" width="43" height="43" rx="21.5" fill="#FDFDFD"/>
<rect x="0.5" y="0.5" width="43" height="43" rx="21.5" stroke="#F2F5F9"/>
<path d="M22.0003 30.0417C21.742 30.0417 21.492 30.0084 21.2837 29.9334C18.1003 28.8417 13.042 24.9667 13.042 19.2417C13.042 16.325 15.4003 13.9584 18.3003 13.9584C19.7087 13.9584 21.0253 14.5084 22.0003 15.4917C22.9753 14.5084 24.292 13.9584 25.7003 13.9584C28.6003 13.9584 30.9587 16.3334 30.9587 19.2417C30.9587 24.975 25.9003 28.8417 22.717 29.9334C22.5087 30.0084 22.2587 30.0417 22.0003 30.0417ZM18.3003 15.2084C16.092 15.2084 14.292 17.0167 14.292 19.2417C14.292 24.9334 19.767 28.1 21.692 28.7584C21.842 28.8084 22.167 28.8084 22.317 28.7584C24.2337 28.1 29.717 24.9417 29.717 19.2417C29.717 17.0167 27.917 15.2084 25.7087 15.2084C24.442 15.2084 23.267 15.8 22.5087 16.825C22.2753 17.1417 21.742 17.1417 21.5087 16.825C20.7337 15.7917 19.567 15.2084 18.3003 15.2084Z" fill="#263141"/>
</svg>
