<svg width="10" height="10" viewBox="0 0 10 10" fill="none" xmlns="http://www.w3.org/2000/svg">
<path d="M8.96452 4.2659L2.11209 0.114336C1.98275 0.0396533 1.83606 0.000227927 1.6867 9.85313e-07C1.53734 -0.000225956 1.39053 0.0387534 1.26096 0.113043C1.13138 0.187333 1.02358 0.294331 0.948312 0.423343C0.873048 0.552355 0.832964 0.698861 0.832065 0.84822V9.14281C0.830713 9.2939 0.869501 9.44264 0.944466 9.57383C1.01943 9.70502 1.12788 9.81395 1.25874 9.88949C1.38927 9.96197 1.53612 10 1.68542 10C1.83472 10 1.98156 9.96197 2.11209 9.88949L8.93892 5.73793C9.06431 5.66187 9.16799 5.55477 9.23994 5.42697C9.3119 5.29917 9.3497 5.15498 9.3497 5.00831C9.3497 4.86165 9.3119 4.71746 9.23994 4.58966C9.16799 4.46186 9.06431 4.35476 8.93892 4.2787L8.96452 4.2659Z" fill="#FF4D4D"/>
</svg>
