<svg width="53" height="36" viewBox="0 0 53 36" fill="none" xmlns="http://www.w3.org/2000/svg">
<rect x="0.5" y="0.5" width="52" height="35" rx="7.5" fill="#FDFDFD"/>
<rect x="0.5" y="0.5" width="52" height="35" rx="7.5" stroke="#FF4D4D"/>
<path d="M13.4091 24V12.3636H17.4773C18.2879 12.3636 18.9564 12.5038 19.483 12.7841C20.0095 13.0606 20.4015 13.4337 20.6591 13.9034C20.9167 14.3693 21.0455 14.8864 21.0455 15.4545C21.0455 15.9545 20.9564 16.3674 20.7784 16.6932C20.6042 17.0189 20.3731 17.2765 20.0852 17.4659C19.8011 17.6553 19.4924 17.7955 19.1591 17.8864V18C19.5152 18.0227 19.8731 18.1477 20.233 18.375C20.5928 18.6023 20.8939 18.928 21.1364 19.3523C21.3788 19.7765 21.5 20.2955 21.5 20.9091C21.5 21.4924 21.3674 22.017 21.1023 22.483C20.8371 22.9489 20.4186 23.3182 19.8466 23.5909C19.2746 23.8636 18.5303 24 17.6136 24H13.4091ZM14.8182 22.75H17.6136C18.5341 22.75 19.1875 22.572 19.5739 22.2159C19.964 21.8561 20.1591 21.4205 20.1591 20.9091C20.1591 20.5152 20.0587 20.1515 19.858 19.8182C19.6572 19.4811 19.3712 19.2121 19 19.0114C18.6288 18.8068 18.1894 18.7045 17.6818 18.7045H14.8182V22.75ZM14.8182 17.4773H17.4318C17.8561 17.4773 18.2386 17.3939 18.5795 17.2273C18.9242 17.0606 19.197 16.8258 19.3977 16.5227C19.6023 16.2197 19.7045 15.8636 19.7045 15.4545C19.7045 14.9432 19.5265 14.5095 19.1705 14.1534C18.8144 13.7936 18.25 13.6136 17.4773 13.6136H14.8182V17.4773ZM27.179 24.1818C26.3608 24.1818 25.6563 23.9886 25.0653 23.6023C24.4744 23.2159 24.0199 22.6837 23.7017 22.0057C23.3835 21.3277 23.2244 20.553 23.2244 19.6818C23.2244 18.7955 23.3873 18.0133 23.7131 17.3352C24.0426 16.6534 24.5009 16.1212 25.0881 15.7386C25.679 15.3523 26.3684 15.1591 27.1562 15.1591C27.7699 15.1591 28.3229 15.2727 28.8153 15.5C29.3078 15.7273 29.7112 16.0455 30.0256 16.4545C30.34 16.8636 30.535 17.3409 30.6108 17.8864H29.2699C29.1676 17.4886 28.9403 17.1364 28.5881 16.8295C28.2396 16.5189 27.7699 16.3636 27.179 16.3636C26.6563 16.3636 26.1979 16.5 25.804 16.7727C25.4138 17.0417 25.1089 17.4223 24.8892 17.9148C24.6733 18.4034 24.5653 18.9773 24.5653 19.6364C24.5653 20.3106 24.6714 20.8977 24.8835 21.3977C25.0994 21.8977 25.4025 22.286 25.7926 22.5625C26.1866 22.839 26.6487 22.9773 27.179 22.9773C27.5275 22.9773 27.8438 22.9167 28.1278 22.7955C28.4119 22.6742 28.6525 22.5 28.8494 22.2727C29.0464 22.0455 29.1866 21.7727 29.2699 21.4545H30.6108C30.535 21.9697 30.3475 22.4337 30.0483 22.8466C29.7528 23.2557 29.3608 23.5814 28.8722 23.8239C28.3873 24.0625 27.8229 24.1818 27.179 24.1818ZM36.2301 24.1818C35.3892 24.1818 34.6638 23.9962 34.054 23.625C33.4479 23.25 32.9801 22.7273 32.6506 22.0568C32.3248 21.3826 32.1619 20.5985 32.1619 19.7045C32.1619 18.8106 32.3248 18.0227 32.6506 17.3409C32.9801 16.6553 33.4384 16.1212 34.0256 15.7386C34.6165 15.3523 35.3059 15.1591 36.0938 15.1591C36.5483 15.1591 36.9972 15.2348 37.4403 15.3864C37.8835 15.5379 38.2869 15.7841 38.6506 16.125C39.0142 16.4621 39.304 16.9091 39.5199 17.4659C39.7358 18.0227 39.8438 18.7083 39.8438 19.5227V20.0909H33.1165V18.9318H38.4801C38.4801 18.4394 38.3816 18 38.1847 17.6136C37.9915 17.2273 37.715 16.9223 37.3551 16.6989C36.9991 16.4754 36.5786 16.3636 36.0938 16.3636C35.5597 16.3636 35.0975 16.4962 34.7074 16.7614C34.321 17.0227 34.0237 17.3636 33.8153 17.7841C33.607 18.2045 33.5028 18.6553 33.5028 19.1364V19.9091C33.5028 20.5682 33.6165 21.1269 33.8438 21.5852C34.0748 22.0398 34.3949 22.3864 34.804 22.625C35.2131 22.8598 35.6884 22.9773 36.2301 22.9773C36.5824 22.9773 36.9006 22.928 37.1847 22.8295C37.4725 22.7273 37.7206 22.5758 37.929 22.375C38.1373 22.1705 38.2983 21.9167 38.4119 21.6136L39.7074 21.9773C39.571 22.4167 39.3419 22.803 39.0199 23.1364C38.6979 23.4659 38.3002 23.7235 37.8267 23.9091C37.3532 24.0909 36.821 24.1818 36.2301 24.1818Z" fill="#7E8794"/>
</svg>
