<svg width="70" height="36" viewBox="0 0 70 36" fill="none" xmlns="http://www.w3.org/2000/svg">
<rect width="69.4118" height="36" rx="10" fill="white"/>
<g clip-path="url(#clip0_4766_37316)">
<path fill-rule="evenodd" clip-rule="evenodd" d="M38.5035 13.011H40.8541V21.7446C40.8541 22.2522 40.56 22.7058 40.1329 22.8928C39.9994 22.9463 39.8388 22.9999 39.6788 22.9999C39.5221 23.0003 39.3672 22.9672 39.2244 22.9026C39.0816 22.8381 38.9543 22.7437 38.8512 22.6258L30.9718 16.6705V22.9999H28.6218V14.2393C28.6218 13.7316 28.9153 13.2781 29.3429 13.091C29.7965 12.904 30.3041 13.011 30.6247 13.3581L38.5035 19.314V13.0116V13.011ZM53.1671 17.6846C52.9 17.391 52.5788 17.1775 52.2318 17.0169C51.8697 16.8584 51.4788 16.7767 51.0835 16.7769H44.7806C44.4335 16.7769 44.1659 16.4828 44.1659 16.1358C44.1659 15.7887 44.4329 15.4946 44.78 15.4946H52.2588C52.9 15.4946 53.4341 14.934 53.4341 14.2663C53.4341 13.5716 52.9 13.0369 52.2588 13.0369H44.78C44.38 13.0369 43.9788 13.1175 43.6318 13.2781C43.2847 13.4381 42.9641 13.6516 42.6971 13.9458C42.429 14.2365 42.2122 14.5707 42.0559 14.934C41.8971 15.3147 41.8155 15.7232 41.8159 16.1358C41.8159 16.5628 41.8959 16.9634 42.0559 17.3375C42.2165 17.7116 42.43 18.0316 42.6971 18.3258C42.9641 18.6199 43.2847 18.8334 43.6324 18.9934C43.9943 19.1521 44.3853 19.234 44.7806 19.234H51.0835C51.4306 19.234 51.6977 19.5281 51.6977 19.8752C51.6977 20.2222 51.4306 20.5163 51.0835 20.5163H42.9906C42.3494 20.5163 41.8159 21.0769 41.8159 21.7446C41.8159 22.4387 42.35 22.9734 42.9906 22.9734H51.0835C51.4793 22.9762 51.8711 22.8939 52.2324 22.7322C52.5794 22.5722 52.9 22.3587 53.1671 22.0652C53.4352 21.7744 53.652 21.4403 53.8082 21.0769C53.9671 20.6962 54.0486 20.2877 54.0482 19.8752C54.0482 19.4746 53.9682 19.0469 53.8076 18.6728C53.6476 18.2993 53.4347 17.9516 53.1671 17.6846ZM27.2588 18.0058C27.2588 20.7569 25.1218 23.0005 22.5047 23.0005H15V13.011H22.4782C25.1229 13.011 27.2594 15.2546 27.2594 18.0052L27.2588 18.0058ZM24.9882 18.2199C24.9882 17.5516 24.8282 16.5905 24.3741 16.1099C23.92 15.6287 23.1988 15.2016 22.5312 15.2016H17.2706V20.7034H22.5324C23.2 20.7034 23.8147 20.4363 24.2682 19.9822C24.7312 19.5126 24.9903 18.8793 24.9894 18.2199H24.9882Z" fill="#F28A1E"/>
</g>
<defs>
<clipPath id="clip0_4766_37316">
<rect width="39.4118" height="10" fill="white" transform="translate(15 13)"/>
</clipPath>
</defs>
</svg>
