<svg width="44" height="44" viewBox="0 0 44 44" fill="none" xmlns="http://www.w3.org/2000/svg">
<rect width="44" height="44" rx="22" fill="#FF4D4D"/>
<path d="M21.9974 30.0433C21.7391 30.0433 21.4891 30.01 21.2807 29.935C18.0974 28.8433 13.0391 24.9683 13.0391 19.2433C13.0391 16.3266 15.3974 13.96 18.2974 13.96C19.7057 13.96 21.0224 14.51 21.9974 15.4933C22.9724 14.51 24.2891 13.96 25.6974 13.96C28.5974 13.96 30.9557 16.335 30.9557 19.2433C30.9557 24.9766 25.8974 28.8433 22.7141 29.935C22.5057 30.01 22.2557 30.0433 21.9974 30.0433ZM18.2974 15.21C16.0891 15.21 14.2891 17.0183 14.2891 19.2433C14.2891 24.935 19.7641 28.1016 21.6891 28.76C21.8391 28.81 22.1641 28.81 22.3141 28.76C24.2307 28.1016 29.7141 24.9433 29.7141 19.2433C29.7141 17.0183 27.9141 15.21 25.7057 15.21C24.4391 15.21 23.2641 15.8016 22.5057 16.8266C22.2724 17.1433 21.7391 17.1433 21.5057 16.8266C20.7307 15.7933 19.5641 15.21 18.2974 15.21Z" fill="white"/>
</svg>
