<svg width="94" height="36" viewBox="0 0 94 36" fill="none" xmlns="http://www.w3.org/2000/svg">
<rect x="0.410156" width="92.6908" height="36" rx="10" fill="white"/>
<path fill-rule="evenodd" clip-rule="evenodd" d="M20.3253 14.7626C19.2775 14.7626 18.2667 14.9484 17.485 15.3183C16.7366 15.676 15.4102 16.8162 15.4102 18.979V24.9624H17.888V19.5446C17.888 19.2608 17.9299 18.4125 17.9676 18.1903C18.1933 17.0864 18.9955 16.8233 20.1857 16.8233C20.3042 16.8233 20.4479 16.8295 20.59 16.8401L21.1673 14.824C20.9634 14.7809 20.5697 14.7626 20.3253 14.7626Z" fill="black"/>
<path fill-rule="evenodd" clip-rule="evenodd" d="M29.8327 19.5313C29.8327 17.3775 28.8107 14.7626 25.605 14.7626C22.4581 14.7626 20.8086 17.3176 20.8086 20.0305C20.8086 23.0289 22.6872 25 25.8662 25C27.2772 25 28.4485 24.7183 29.2899 24.3779L28.927 22.6681C28.1848 22.9498 27.3568 23.1099 26.2073 23.1099C24.6383 23.1099 23.2475 22.3469 23.1853 20.5729H29.7566C29.7945 20.3523 29.8327 19.9939 29.8327 19.5313ZM23.1853 18.8459C23.2908 17.8416 23.9334 16.4526 25.4663 16.4526C27.1155 16.4526 27.5175 17.939 27.4964 18.8438L23.1853 18.8459Z" fill="black"/>
<path fill-rule="evenodd" clip-rule="evenodd" d="M68.5904 14.7626C67.5438 14.7626 66.532 14.9484 65.7512 15.3183C65.0056 15.676 63.6758 16.8162 63.6758 18.979V24.9624H66.1536V19.5446C66.1536 19.2608 66.194 18.4125 66.2344 18.1903C66.4564 17.0864 67.2636 16.8233 68.4511 16.8233C68.5701 16.8233 68.7119 16.8295 68.859 16.8401L69.432 14.824C69.2287 14.7809 68.8344 14.7626 68.5904 14.7626Z" fill="#FF208A"/>
<path fill-rule="evenodd" clip-rule="evenodd" d="M78.1013 19.5313C78.1013 17.3775 77.0724 14.7626 73.8674 14.7626C70.7248 14.7626 69.0703 17.3176 69.0703 20.0305C69.0703 23.0289 70.9477 25 74.1298 25C75.542 25 76.7121 24.7183 77.5584 24.3779L77.1934 22.6681C76.4512 22.9498 75.6238 23.1099 74.473 23.1099C72.8997 23.1099 71.5105 22.3469 71.4517 20.5729H78.0226C78.0603 20.3523 78.1013 19.9939 78.1013 19.5313ZM71.4496 18.8459C71.5518 17.8416 72.1977 16.4526 73.7299 16.4526C75.385 16.4526 75.7833 17.939 75.7631 18.8438L71.4496 18.8459Z" fill="#FF208A"/>
<path fill-rule="evenodd" clip-rule="evenodd" d="M42.2555 16.8959C40.4459 16.1913 39.6561 15.7092 39.6561 14.6639C39.6561 13.8777 40.3402 13.0347 41.9128 13.0347C43.1842 13.0347 44.1344 13.4173 44.6176 13.6773L45.2208 11.6847C44.5178 11.3245 43.4277 11 41.952 11C39.0137 11 37.1537 12.6903 37.1537 14.9031C37.1537 16.8537 38.5884 18.0398 40.8261 18.8459C42.5583 19.4698 43.248 20.0702 43.248 21.099C43.248 22.2054 42.355 22.9497 40.7655 22.9497C39.4941 22.9497 38.2871 22.548 37.4793 22.0832L36.9336 24.1356C37.6832 24.5792 39.1711 25 40.6023 25C44.1142 25 45.7665 23.0878 45.7665 20.9178C45.7665 18.9644 44.6176 17.7795 42.2555 16.8959Z" fill="#FF208A"/>
<path fill-rule="evenodd" clip-rule="evenodd" d="M50.9182 22.9693C49.9684 22.9693 49.6465 22.3469 49.6493 21.1577L49.6465 16.832L51.3669 16.8367L51.8949 14.9866H49.6465V12.2063L47.2266 13.4045V21.4409C47.2266 22.7276 47.4697 23.6112 47.9933 24.1771C48.4563 24.6785 49.2277 25 50.131 25C50.9182 25 51.5619 24.8802 51.9306 24.739L51.8849 22.8483C51.6048 22.929 51.3828 22.9693 50.9182 22.9693Z" fill="#FF208A"/>
<path fill-rule="evenodd" clip-rule="evenodd" d="M57.5909 14.7626C54.6274 14.7626 52.5078 16.734 52.5078 19.9502C52.5078 23.0878 54.6489 25 57.4277 25C59.9294 25 62.4644 23.3931 62.4644 19.7922C62.4644 16.8156 60.5143 14.7626 57.5909 14.7626ZM57.5104 23.2079C55.9971 23.2079 55.0689 21.7835 55.0689 19.8924C55.0689 18.2617 55.7744 16.5764 57.5309 16.5764C59.2224 16.5764 59.9073 18.3207 59.9073 19.8496C59.9073 21.8223 58.9208 23.2079 57.5104 23.2079Z" fill="#FF208A"/>
<path fill-rule="evenodd" clip-rule="evenodd" d="M33.2863 18.2015H33.3071C34.2337 18.2015 34.8372 17.5384 34.8372 16.6337C34.817 15.7091 34.2138 15.0452 33.3071 15.0452C32.4207 15.0452 31.7773 15.7091 31.7773 16.6337C31.7773 17.5384 32.398 18.2015 33.2863 18.2015Z" fill="black"/>
<path fill-rule="evenodd" clip-rule="evenodd" d="M33.3071 21.6244C32.4207 21.6244 31.7773 22.2902 31.7773 23.2136C31.7773 24.1 32.398 24.7829 33.2863 24.7829H33.3071C34.2337 24.7829 34.8372 24.1 34.8372 23.2136C34.817 22.2704 34.2135 21.6244 33.3071 21.6244Z" fill="black"/>
</svg>
