<svg width="20" height="20" viewBox="0 0 20 20" fill="none" xmlns="http://www.w3.org/2000/svg">
<path fill-rule="evenodd" clip-rule="evenodd" d="M5.87701 0.0601818C6.94358 0.0115091 7.28416 0 10 0C12.7158 0 13.0564 0.0115091 14.1229 0.0601818C15.1874 0.108727 15.9143 0.277782 16.5504 0.525009C17.208 0.780527 17.7656 1.12245 18.3215 1.67839C18.8775 2.23435 19.2195 2.79203 19.475 3.44958C19.7222 4.08569 19.8913 4.81259 19.9398 5.87701C19.9885 6.94362 20 7.28416 20 10C20 12.7158 19.9885 13.0564 19.9398 14.123C19.8913 15.1874 19.7222 15.9143 19.475 16.5504C19.2195 17.208 18.8775 17.7656 18.3215 18.3215C17.7656 18.8775 17.208 19.2195 16.5504 19.475C15.9143 19.7222 15.1874 19.8913 14.1229 19.9398C13.0564 19.9885 12.7158 20 10 20C7.28416 20 6.94358 19.9885 5.87701 19.9398C4.81259 19.8913 4.08569 19.7222 3.44958 19.475C2.79203 19.2195 2.23432 18.8775 1.67839 18.3215C1.12242 17.7656 0.780527 17.2079 0.524964 16.5504C0.277746 15.9143 0.108727 15.1874 0.0601363 14.123C0.0114727 13.0564 0 12.7158 0 10C0 7.28413 0.0114727 6.94362 0.0601363 5.87701C0.108727 4.81259 0.277746 4.08569 0.524964 3.44958C0.780527 2.79203 1.12242 2.23435 1.67839 1.67839C2.23432 1.12245 2.79203 0.780527 3.44958 0.525009C4.08569 0.277782 4.81259 0.108727 5.87701 0.0601818ZM14.0408 1.86007C12.9864 1.81196 12.6701 1.8018 10 1.8018C7.32985 1.8018 7.0136 1.81196 5.9591 1.86007C4.98415 1.90457 4.45462 2.06748 4.10225 2.20443C3.63551 2.38584 3.30235 2.60253 2.95244 2.95248C2.60253 3.30239 2.38579 3.63551 2.20438 4.10229C2.06748 4.45466 1.90457 4.98415 1.86007 5.95915C1.81196 7.0136 1.8018 7.32989 1.8018 10C1.8018 12.6701 1.81196 12.9864 1.86007 14.0408C1.90457 15.0158 2.06748 15.5454 2.20438 15.8977C2.38579 16.3645 2.60253 16.6976 2.95244 17.0475C3.30235 17.3975 3.63551 17.6142 4.10225 17.7955C4.45462 17.9325 4.98415 18.0955 5.95915 18.1399C7.01345 18.188 7.32965 18.1982 10 18.1982C12.6703 18.1982 12.9865 18.188 14.0408 18.1399C15.0158 18.0955 15.5453 17.9325 15.8976 17.7955C16.3645 17.6142 16.6976 17.3975 17.0475 17.0475C17.3975 16.6976 17.6141 16.3645 17.7955 15.8977C17.9325 15.5454 18.0954 15.0158 18.1399 14.0408C18.188 12.9864 18.1982 12.6701 18.1982 10C18.1982 7.32989 18.188 7.0136 18.1399 5.95915C18.0954 4.98415 17.9325 4.45466 17.7955 4.10229C17.6141 3.63551 17.3975 3.30239 17.0475 2.95244C16.6976 2.60253 16.3645 2.38584 15.8976 2.20443C15.5453 2.06748 15.0158 1.90457 14.0408 1.86007ZM6.66663 10C6.66663 11.8409 8.15905 13.3334 10 13.3334C11.8409 13.3334 13.3334 11.8409 13.3334 10C13.3334 8.15905 11.8409 6.66666 10 6.66666C8.15905 6.66666 6.66663 8.15905 6.66663 10ZM4.86483 10C4.86483 7.16393 7.16393 4.86487 10 4.86487C12.836 4.86487 15.1351 7.16393 15.1351 10C15.1351 12.8361 12.836 15.1351 10 15.1351C7.16393 15.1351 4.86483 12.8361 4.86483 10ZM15.338 5.86196C16.0007 5.86196 16.538 5.32473 16.538 4.66198C16.538 3.99923 16.0007 3.462 15.338 3.462C14.6753 3.462 14.138 3.99923 14.138 4.66198C14.138 5.32473 14.6753 5.86196 15.338 5.86196Z" fill="#0F1113"/>
</svg>
