<svg width="20" height="18" viewBox="0 0 20 18" fill="none" xmlns="http://www.w3.org/2000/svg">
<path d="M18.7215 0.14513L0.929835 7.49884C-0.270828 7.96575 -0.270828 8.78283 0.711533 9.01628L5.18673 10.5337L6.93315 16.1365C7.15146 16.7202 7.0423 16.9536 7.58806 16.9536C8.02467 16.9536 8.24297 16.7202 8.46127 16.4867C8.57042 16.37 9.55278 15.3195 10.6443 14.1522L15.2286 17.7707C16.1019 18.2376 16.6476 18.0042 16.8659 16.9536L19.9221 1.66256C20.2496 0.378581 19.4855 -0.321773 18.7215 0.14513ZM16.4293 3.6469L7.91551 11.9344L7.58806 15.7864L5.84164 10.1835L15.8836 3.41345C16.3202 3.06327 16.7568 3.29672 16.4293 3.6469Z" fill="#0F1113"/>
</svg>
