<svg width="24" height="24" viewBox="0 0 24 24" fill="none" xmlns="http://www.w3.org/2000/svg">
<path fill-rule="evenodd" clip-rule="evenodd" d="M15.0732 1.99963H8.93763C3.33336 1.99963 2 3.33299 2 8.92685V15.0624C2 20.6667 3.32294 22 8.92721 22H15.0627C20.667 22 22.0004 20.6771 22.0004 15.0728V8.93726C22.0004 3.33299 20.6774 1.99963 15.0732 1.99963ZM17.9378 8.35419C18.3753 8.35419 18.4691 8.57294 18.3753 8.88545C18.2189 9.64002 16.8106 11.679 16.4843 12.1514C16.4412 12.2138 16.417 12.2489 16.417 12.2501C16.2607 12.4897 16.1982 12.6147 16.417 12.8959C16.4915 13.0077 16.6611 13.1738 16.8551 13.3637C17.0408 13.5456 17.2488 13.7493 17.417 13.948C18.042 14.6564 18.5107 15.2502 18.6462 15.6564C18.7712 16.0627 18.5628 16.271 18.1462 16.271H16.6878C16.3009 16.271 16.1033 16.051 15.679 15.5788C15.4979 15.3772 15.2755 15.1296 14.9794 14.8335C14.1148 14.0001 13.7502 13.896 13.5315 13.896C13.2294 13.896 13.1461 13.9793 13.1461 14.396V15.7085C13.1461 16.0627 13.0315 16.271 12.1044 16.271C10.5627 16.271 8.86473 15.3335 7.65637 13.6043C5.84384 11.073 5.35425 9.15629 5.35425 8.77086C5.35425 8.55211 5.43758 8.35419 5.85426 8.35419H7.31262C7.68762 8.35419 7.82304 8.52086 7.96888 8.90628C8.67723 10.9897 9.88558 12.8022 10.3752 12.8022C10.5627 12.8022 10.646 12.7189 10.646 12.2501V10.1042C10.6076 9.50232 10.396 9.23892 10.2386 9.04304C10.14 8.92025 10.0627 8.82399 10.0627 8.68753C10.0627 8.53127 10.2085 8.35419 10.4377 8.35419H12.7294C13.0419 8.35419 13.1461 8.51044 13.1461 8.88545V11.7813C13.1461 12.0938 13.2815 12.198 13.3752 12.198C13.5627 12.198 13.7086 12.0938 14.0523 11.7501C15.1044 10.5834 15.844 8.77086 15.844 8.77086C15.9378 8.55211 16.1045 8.35419 16.4795 8.35419H17.9378Z" fill="#0F1113"/>
</svg>
