<svg width="20" height="15" viewBox="0 0 20 15" fill="none" xmlns="http://www.w3.org/2000/svg">
<path fill-rule="evenodd" clip-rule="evenodd" d="M19.5821 2.2003C19.3521 1.33422 18.6744 0.652113 17.8139 0.420633C16.2542 0 10 0 10 0C10 0 3.74587 0 2.18614 0.420633C1.32565 0.652147 0.647937 1.33422 0.41792 2.2003C0 3.77014 0 7.0455 0 7.0455C0 7.0455 0 10.3207 0.41792 11.8906C0.647937 12.7567 1.32565 13.4104 2.18614 13.6419C3.74587 14.0625 10 14.0625 10 14.0625C10 14.0625 16.2542 14.0625 17.8139 13.6419C18.6744 13.4104 19.3521 12.7567 19.5821 11.8906C20 10.3207 20 7.0455 20 7.0455C20 7.0455 20 3.77014 19.5821 2.2003ZM7.95455 10.0192V4.07172L13.1818 7.0455L7.95455 10.0192Z" fill="#0F1113"/>
</svg>
