<svg width="30" height="30" viewBox="0 0 30 30" fill="none" xmlns="http://www.w3.org/2000/svg">
<path d="M2.8125 29.0625C2.8125 25.8302 4.09654 22.7302 6.38214 20.4446C8.66774 18.159 11.7677 16.875 15 16.875C18.2323 16.875 21.3323 18.159 23.6179 20.4446C25.9035 22.7302 27.1875 25.8302 27.1875 29.0625" stroke="#FF4D4D" stroke-width="1.5" stroke-linecap="round" stroke-linejoin="round"/>
<path d="M10.3125 17.8125V18.75C10.3125 19.9932 10.8064 21.1855 11.6854 22.0646C12.5645 22.9436 13.7568 23.4375 15 23.4375C16.2432 23.4375 17.4355 22.9436 18.3146 22.0646C19.1936 21.1855 19.6875 19.9932 19.6875 18.75V17.8125" stroke="#FF4D4D" stroke-width="1.5" stroke-linecap="round" stroke-linejoin="round"/>
<path d="M15.0004 0.937543C13.9374 0.929971 12.8886 1.18224 11.9453 1.67241C11.002 2.16258 10.1927 2.87581 9.58789 3.75004C10.3129 7.50004 17.5004 10.925 23.4379 9.37504C22.5004 5.62504 21.5629 0.937543 15.0004 0.937543Z" stroke="#FF4D4D" stroke-width="1.5" stroke-linecap="round" stroke-linejoin="round"/>
<path d="M9.58717 3.74988C8.90065 4.73579 8.49795 5.89124 8.42296 7.09028C8.34796 8.28932 8.60355 9.48594 9.16187 10.5497C9.72019 11.6135 10.5598 12.5036 11.5892 13.123C12.6186 13.7424 13.7983 14.0673 14.9997 14.0624C16.2949 14.0678 17.562 13.6846 18.6372 12.9624" stroke="#FF4D4D" stroke-width="1.5" stroke-linecap="round" stroke-linejoin="round"/>
</svg>
