<svg width="20" height="20" viewBox="0 0 20 20" fill="none" xmlns="http://www.w3.org/2000/svg">
<path d="M9.99984 18.0416C9.7415 18.0416 9.4915 18.0083 9.28317 17.9333C6.09984 16.8416 1.0415 12.9666 1.0415 7.24165C1.0415 4.32498 3.39984 1.95831 6.29984 1.95831C7.70817 1.95831 9.02484 2.50831 9.99984 3.49165C10.9748 2.50831 12.2915 1.95831 13.6998 1.95831C16.5998 1.95831 18.9582 4.33331 18.9582 7.24165C18.9582 12.975 13.8998 16.8416 10.7165 17.9333C10.5082 18.0083 10.2582 18.0416 9.99984 18.0416ZM6.29984 3.20831C4.0915 3.20831 2.2915 5.01665 2.2915 7.24165C2.2915 12.9333 7.7665 16.1 9.6915 16.7583C9.8415 16.8083 10.1665 16.8083 10.3165 16.7583C12.2332 16.1 17.7165 12.9416 17.7165 7.24165C17.7165 5.01665 15.9165 3.20831 13.7082 3.20831C12.4415 3.20831 11.2665 3.79998 10.5082 4.82498C10.2748 5.14165 9.7415 5.14165 9.50817 4.82498C8.73317 3.79165 7.5665 3.20831 6.29984 3.20831Z" fill="#263141"/>
</svg>
