<svg width="20" height="22" viewBox="0 0 20 22" fill="none" xmlns="http://www.w3.org/2000/svg">
<path d="M1.875 20.375C1.875 18.2201 2.73102 16.1535 4.25476 14.6298C5.77849 13.106 7.84512 12.25 10 12.25C12.1549 12.25 14.2215 13.106 15.7452 14.6298C17.269 16.1535 18.125 18.2201 18.125 20.375" stroke="#FF4D4D" stroke-width="1.5" stroke-linecap="round" stroke-linejoin="round"/>
<path d="M6.875 12.875V13.5C6.875 14.3288 7.20424 15.1237 7.79029 15.7097C8.37634 16.2958 9.1712 16.625 10 16.625C10.8288 16.625 11.6237 16.2958 12.2097 15.7097C12.7958 15.1237 13.125 14.3288 13.125 13.5V12.875" stroke="#FF4D4D" stroke-width="1.5" stroke-linecap="round" stroke-linejoin="round"/>
<path d="M9.99896 1.62499C9.29027 1.61994 8.59108 1.78812 7.96221 2.1149C7.33334 2.44168 6.79384 2.91716 6.39062 3.49999C6.87396 5.99999 11.6656 8.28332 15.624 7.24999C14.999 4.74999 14.374 1.62499 9.99896 1.62499Z" stroke="#FF4D4D" stroke-width="1.5" stroke-linecap="round" stroke-linejoin="round"/>
<path d="M6.39405 3.49988C5.93637 4.15715 5.6679 4.92745 5.61791 5.72681C5.56791 6.52617 5.73831 7.32392 6.11052 8.0331C6.48273 8.74228 7.04248 9.33568 7.72875 9.74861C8.41501 10.1615 9.20147 10.3782 10.0024 10.3749C10.8659 10.3785 11.7106 10.123 12.4274 9.64154" stroke="#FF4D4D" stroke-width="1.5" stroke-linecap="round" stroke-linejoin="round"/>
</svg>
